<?xml version="1.0" encoding="utf-8"?>
<!-- Generator: Adobe Illustrator 21.1.0, SVG Export Plug-In . SVG Version: 6.00 Build 0)  -->
<svg version="1.1" xmlns="http://www.w3.org/2000/svg" xmlns:xlink="http://www.w3.org/1999/xlink" x="0px" y="0px"
	 viewBox="0 0 609.5 361.4" style="enable-background:new 0 0 609.5 361.4;" xml:space="preserve">
<style type="text/css">
	.st0{display:none;}
	.st1{display:inline;}
	.st2{fill:#2F74B8;}
	.st3{display:inline;fill:#2F74B8;}
	.st4{font-family:'PaladinsCondensed';}
	.st5{font-size:45.3928px;}
	.st6{fill:#FFFFFF;}
	.st7{fill:#0373FD;}
	.st8{fill:#FFCC06;}
	.st9{display:inline;fill:#0373FD;}
</style>
<g id="Layer_1_1_" class="st0">
	<g class="st1">
		<g>
			<path class="st2" d="M472.3,195.7c-4.6-7.4-6.6-15.9-5.8-23.6c-7.2,4.5-17.2,20.5-17.2,20.5c9.2,2.2,15.6,3.1,23.4,3.8
				L472.3,195.7z"/>
			<path class="st2" d="M530.8,185.5c-4.3,0.1-9.6-0.7-15.2-2.1c1.2,2.1,2.9,4.1,5.5,6.9C524.7,188.8,527.9,187.2,530.8,185.5z"/>
			<path class="st2" d="M490.6,177.4l2-1.4c-8.6-3.2-15.4-6.2-17.2-6.8l-0.2-0.1c-1.1-0.4-2.1-0.7-3.2-1.1l-0.2,0.6
				c-1.9,6.8-0.8,15.2,2.8,22.5C479.4,185.8,485.1,181.4,490.6,177.4z"/>
			<path class="st2" d="M439.2,169.4c0-0.3,0-0.5,0-0.8c-5.1,4.1-9.9,15.7-14.8,17.4c5.7,2,12.3,3.5,17.5,4.9
				c0.8,0.2,1.6,0.4,2.4,0.6L444,191C439.5,184.2,439.3,176,439.2,169.4z"/>
			<path class="st2" d="M467.6,166.6c-8.1-2.5-15.2-4.9-23-2c-0.6,1.6-1.5,15.2,1.4,21.1C451.3,178.1,459.9,170.4,467.6,166.6z"/>
			<path class="st2" d="M516.9,191.8c-1.8-2-3.2-3.6-4.3-5.3c-4.6,4.1-8.1,5.9-14.4,8.4l-2.1,0.8l-1-1.9c-1.9-3.8-3.4-7.6-4.3-11.1
				c-5.2,3.9-10.4,8.3-14.6,13.4l-0.4,0.5C492.8,197.6,506.4,195.4,516.9,191.8z"/>
			<path class="st2" d="M510.9,182.1c-5.7-1.6-11.6-3.7-16.9-5.6l0.4,2.3c0.7,3.7,1.9,7.6,3.8,11.7
				C503.4,188.3,506.4,186.4,510.9,182.1z"/>
			<path class="st2" d="M551.7,88c-33.4-31.5-76.7-54.5-118.9-64.4c0,0-0.7-0.2-1.7-0.4c-13-2.9-33.6-5.3-48.4-5.8
				c11.9,1.5,23.3,3.6,34.1,6c-5.7-0.9-11.5-1.4-17.5-1.5c-29.5-0.6-54.8,14.9-79.4,29.3C400.9,41.9,451.9,62,494,96.3
				c30.8,25.1,70.6,48.9,108.7,34.8c0.1,0.1,0.1,0.1,0.2,0.1c-16.3,24.1-48,41.7-78.7,43.5c-1.6-0.2-3.3-0.5-5-0.9
				c-7.1-1.5-14.4-4.3-21.1-7.1l-11.7-4.9c-2.7-1.1-5.4-2.2-8.1-3.2l-0.2-0.1c-3.9-1.4-9-3.2-14.6-4.4c-9-1.9-16.5-1.8-23.2,0.3
				c-4.2,1.4-7.5,5.2-10.9,9.8c-2.8,4.7-6,8.5-9.4,11.5c-9.5,8.3-21.1,10.2-33.5,8.2c23.8,10.4,44.7,17.1,63.1,20.3
				c29.9,5.2,53.5,1.3,72.7-10.6c-7.2,3.4-15.7,7.1-25.6,8.6c-18.4,2.8-36.1,1-50.7-2.1c-21.3-4.6-36-12-36-12
				c6.8-1.6,12-6.5,16.3-11.8c6-7.4,10.4-15.7,15.4-17.3c10-3.2,21.5-0.5,30.9,2.7l0.1-0.1l0,0.1c1.2,0.4,2.5,0.9,3.6,1.3l0.2,0.1
				c4.5,1.7,9.3,3.7,13.8,5.6c1.6,0.7,3.2,1.4,4.8,2c0,0,0-0.1,0-0.1c0.2,0.1,0.5,0.3,0.7,0.4c9.3,3.9,18.7,7.4,28,8.5
				c36.5-2,70.1-23.9,85.4-49.6c-5.8-4.1-11.9-8.1-17.7-12C578,108.8,563.7,99.3,551.7,88z M531,107.6c-3.4-1.6-6.7-3.8-10-6.1
				c13.4,2.3,29,2.8,22.4-7.4c10.7,8.1,22.1,17.4,33.9,23.6C562.8,120.2,544.2,113.9,531,107.6z"/>
			<path class="st2" d="M455.8,111.9c1.6,11.5,3.9,21.3,19.7,19C468.7,126.3,463.5,115.8,455.8,111.9z"/>
			<path class="st2" d="M498.6,128.9c-2.1-15.5-14-30.5-32.7-38.3c9.9,6.7,25.7,22.3,26.6,35.5c-3.1,1.9-8.7,3-10.7,3.6
				C487.4,131.4,494.1,130.4,498.6,128.9z"/>
			<path class="st2" d="M309.9,83.3c-25.1,8.4-38.4,41.7-38.4,41.7s15.4-25.8,49-34.1C308.1,98,300.4,108,300.4,108
				c8.5-7.2,34.5-13.9,34.5-13.9c-7.8,5-8.6,7.2-8.6,7.2s16.3-10.4,46.9-9.8C364.4,84.9,343.6,72.1,309.9,83.3z"/>
			<path class="st2" d="M424.4,109.8c-1,2.7-12.4,33.7-18.1,46.1c7.3-8.4,22.2-46.5,23.4-49.4C427.9,107.6,426.2,108.7,424.4,109.8z
				"/>
			<path class="st2" d="M392.2,167l29.2-69.5c-3.3,1.6-6.6,3.1-9.8,4.6C409.1,111.5,398.9,150.1,392.2,167z"/>
			<path class="st2" d="M369.9,186.8l40.8-99.1c-4.7,2.1-9.2,4-13.6,5.8C393.5,108,379.4,162.8,369.9,186.8z"/>
			<path class="st2" d="M261.2,111.1c0,0,11.3-29.2,43.4-40.9c0,0,0,0,0,0s0,0,0.1,0c8.7-3.2,19-5.1,31-4.8c3.2,0,6.3,0.2,9.4,0.7
				c0.1,0,0.2,0,0.3,0c-6.1-1.6-12.3-3.4-18.8-3.6C294.6,61.4,267.8,83.8,261.2,111.1z"/>
			<path d="M223.4,121.5c-0.1,0-0.1,0.1-0.2,0.1c-0.1,0.4-0.2,0.6-0.2,0.6C223.2,122,223.3,121.7,223.4,121.5z"/>
			<path class="st2" d="M236.9,83.7c-6.9,14.7-12.6,34-13.7,37.8c0.1-0.2,7.6-21.9,29.4-46.3c15-18.2,30-29,45-36.8
				c13.3-7.8,28.7-14.8,46.6-20.2c-30.6,4.7-47.8,14-47.8,14l8.5-9l-23,9.4c1.5-0.7,6.1-3.1,14.6-10.3
				c-60.8,24.9-80.7-9.8-81.3-20.2c0.1-0.7,0.2-1.5,0.3-2.2c0,0-0.6,1.1-1.4,3c-3.6,8.2-5.4,16.1-5.6,23.4
				C207.4,43.2,212.2,65.2,236.9,83.7z"/>
			<path d="M223.2,121.6C223.2,121.6,223.2,121.6,223.2,121.6C223.2,121.5,223.2,121.6,223.2,121.6L223.2,121.6z"/>
		</g>
		<g>
			<path d="M0,209.5l6.6-18.8h33.3v-11.4H16.6c-7.8,0-13.3-5.6-13.3-13.3v-19.7c0-7.8,5.6-13.3,13.3-13.3h47.3l-6.6,18.8H26.3v11.4
				h23.2c7.8,0,13.3,5.6,13.3,13.3v19.7c0,7.8-5.6,13.3-13.3,13.3H0z"/>
			<path d="M72.1,132.9h23v29h20.1v-29h23v76.6h-23v-28.9H95.1v28.9h-23V132.9z"/>
			<path d="M164,132.9h38.7l20.8,76.6h-44.6v-16.6h15l-8.8-37.9h-4.4L167,209.5h-24L164,132.9z"/>
			<path d="M293.3,166.4c0,6.5-4.7,11.2-11.2,11.2h-1l16.8,31.9h-23.6l-20.5-41.4h16.4v-16.4h-18.9v57.8h-23v-76.6h51.5
				c7.8,0,13.3,5.6,13.3,13.3V166.4z"/>
			<path d="M325.9,209.5h-23v-76.6h23v29h9.1l9.8-29h26.3l-12,29c-2,4.6-4.5,6.9-8,8c3.5,0.8,6.2,2.5,8.1,7l13.2,32.6h-27.1
				l-10.5-28.8h-8.9V209.5z"/>
			<path d="M18.9,311.2c-8.7,0-15-6.3-15-15v-56.2c0-8.7,6.3-15,15-15h55.7l-7.4,21.2H29.7V290h21.4v-13.3H38.6l5.9-17h28.7v51.5
				H18.9z"/>
			<path d="M101.8,224.9h43.6l23.4,86.3h-50.3v-18.7h16.9l-9.9-42.6h-4.9l-15.4,61.4h-27L101.8,224.9z"/>
			<path d="M292.2,311.2h-25.9v-65.1h-20.1v65.1h-25.9v-65.1h-20.1v65.1h-25.9v-86.3h102.8c8.7,0,15,6.3,15,15V311.2z"/>
			<path d="M302.6,224.9h25.9v86.3h-25.9V224.9z"/>
			<path d="M414,311.2h-25.9v-65.1h-22.7v65.1h-25.9v-86.3H399c8.7,0,15,6.3,15,15V311.2z"/>
			<path d="M438.9,311.2c-8.7,0-15-6.3-15-15v-56.2c0-8.7,6.3-15,15-15h55.7l-7.4,21.2h-37.5V290h21.4v-13.3h-12.6l5.9-17h28.7v51.5
				H438.9z"/>
		</g>
		<g>
			<path class="st2" d="M22.3,361.1v-15.4l-5.1,10h-3.5l-5.1-10v15.4H3.5v-26.5h5.1l6.9,14.3l6.9-14.3h5.1v26.5H22.3z"/>
			<path class="st2" d="M50.4,361.1l-1.6-4.7h-9.4l-1.6,4.7h-5.4l9.6-26.5h4.1l9.7,26.5H50.4z M44.3,342.5l-3.3,9.6h6.6L44.3,342.5z
				"/>
			<path class="st2" d="M74.1,361.1l-5.1-9.2l-5.1,9.2H58l8.2-13.6l-7.7-12.9h5.9l4.6,8.5l4.6-8.5h5.8l-7.7,12.9l8.2,13.6H74.1z"/>
			<path class="st2" d="M85.1,361.1v-26.5h5.2v26.5H85.1z"/>
			<path class="st2" d="M117,361.1v-15.4l-5.1,10h-3.5l-5.1-10v15.4h-5.2v-26.5h5.1l6.9,14.3l6.9-14.3h5.1v26.5H117z"/>
			<path class="st2" d="M130.1,361.1v-26.5h5.2v26.5H130.1z"/>
			<path class="st2" d="M141.6,361.1V357l11.3-17.7h-10.8v-4.6H159v4.1l-11.3,17.8H159v4.6H141.6z"/>
			<path class="st2" d="M165.4,361.1v-26.5h17.4v4.6h-12.3v6.2H181v4.6h-10.4v6.4h12.3v4.6H165.4z"/>
			<path class="st2" d="M210.2,350.3v10.8H205v-10.8l-8-15.6h5.6l4.9,10.7l4.9-10.7h5.6L210.2,350.3z"/>
			<path class="st2" d="M238.7,358.5c-1.9,1.9-4.1,2.9-7.1,2.9c-3,0-5.3-1-7.2-2.9c-2.7-2.7-2.6-6-2.6-10.6c0-4.6-0.1-7.9,2.6-10.6
				c1.9-1.9,4.2-2.9,7.2-2.9c3,0,5.3,1,7.1,2.9c2.7,2.7,2.6,6,2.6,10.6C241.4,352.5,241.4,355.8,238.7,358.5z M234.9,340.5
				c-0.7-0.9-1.9-1.4-3.3-1.4s-2.6,0.6-3.3,1.4c-1,1.1-1.3,2.3-1.3,7.4c0,5.1,0.3,6.3,1.3,7.4c0.7,0.9,1.9,1.4,3.3,1.4
				s2.6-0.6,3.3-1.4c1-1.1,1.3-2.3,1.3-7.4C236.2,342.8,235.9,341.6,234.9,340.5z"/>
			<path class="st2" d="M257.8,361.4c-5.4,0-9.7-3.7-9.7-9.3v-17.4h5.2v17.2c0,3,1.8,4.9,4.6,4.9c2.8,0,4.6-1.8,4.6-4.9v-17.2h5.1
				v17.4C267.5,357.7,263.2,361.4,257.8,361.4z"/>
			<path class="st2" d="M289.1,361.1l-5.2-10.6h-3.7v10.6H275v-26.5h10.4c5.4,0,8.6,3.7,8.6,8.1c0,3.7-2.3,6-4.8,6.9l5.9,11.4H289.1
				z M285.1,339.3h-4.9v7h4.9c2.3,0,3.8-1.4,3.8-3.5C288.8,340.7,287.3,339.3,285.1,339.3z"/>
			<path class="st2" d="M321.8,351.2h-5.1v10h-5.2v-26.5h10.3c5.5,0,8.7,3.8,8.7,8.2C330.5,347.4,327.2,351.2,321.8,351.2z
				 M321.5,339.3h-4.8v7.2h4.8c2.3,0,3.8-1.4,3.8-3.6C325.4,340.8,323.9,339.3,321.5,339.3z"/>
			<path class="st2" d="M352.7,358.5c-1.9,1.9-4.1,2.9-7.1,2.9s-5.3-1-7.2-2.9c-2.7-2.7-2.6-6-2.6-10.6c0-4.6-0.1-7.9,2.6-10.6
				c1.9-1.9,4.2-2.9,7.2-2.9s5.3,1,7.1,2.9c2.7,2.7,2.6,6,2.6,10.6C355.3,352.5,355.3,355.8,352.7,358.5z M348.8,340.5
				c-0.7-0.9-1.9-1.4-3.3-1.4s-2.6,0.6-3.3,1.4c-1,1.1-1.3,2.3-1.3,7.4c0,5.1,0.3,6.3,1.3,7.4c0.7,0.9,1.9,1.4,3.3,1.4
				s2.6-0.6,3.3-1.4c1-1.1,1.3-2.3,1.3-7.4C350.1,342.8,349.8,341.6,348.8,340.5z"/>
			<path class="st2" d="M371.7,339.3v21.8h-5.2v-21.8h-6.9v-4.6h19v4.6H371.7z"/>
			<path class="st2" d="M384.6,361.1v-26.5h17.4v4.6h-12.3v6.2h10.4v4.6h-10.4v6.4h12.3v4.6H384.6z"/>
			<path class="st2" d="M424.5,361.1l-10.5-16.2v16.2h-5.2v-26.5h4.6l10.5,16.2v-16.2h5.2v26.5H424.5z"/>
			<path class="st2" d="M447.2,339.3v21.8H442v-21.8h-6.9v-4.6h19v4.6H447.2z"/>
			<path class="st2" d="M460.1,361.1v-26.5h5.2v26.5H460.1z"/>
			<path class="st2" d="M488.3,361.1l-1.6-4.7h-9.4l-1.6,4.7h-5.4l9.6-26.5h4.1l9.7,26.5H488.3z M482.1,342.5l-3.3,9.6h6.6
				L482.1,342.5z"/>
			<path class="st2" d="M498.7,361.1v-26.5h5.2v21.8h12v4.6H498.7z"/>
		</g>
	</g>
</g>
<g id="Layer_2" class="st0">
	<text transform="matrix(1 0 0 1 -194.2315 94.547)" class="st3 st4 st5">POWERED BY</text>
</g>
<g id="Layer_5" class="st0">
	<rect x="-269.5" y="-245.9" class="st1" width="1000" height="800"/>
</g>
<g id="Layer_1_copy">
	<g>
		<g>
			<path class="st6" d="M472.3,195.7c-4.6-7.4-6.6-15.9-5.8-23.6c-7.2,4.5-17.2,20.5-17.2,20.5c9.2,2.2,15.6,3.1,23.4,3.8
				L472.3,195.7z"/>
			<path class="st6" d="M530.8,185.5c-4.3,0.1-9.6-0.7-15.2-2.1c1.2,2.1,2.9,4.1,5.5,6.9C524.7,188.8,527.9,187.2,530.8,185.5z"/>
			<path class="st6" d="M490.6,177.4l2-1.4c-8.6-3.2-15.4-6.2-17.2-6.8l-0.2-0.1c-1.1-0.4-2.1-0.7-3.2-1.1l-0.2,0.6
				c-1.9,6.8-0.8,15.2,2.8,22.5C479.4,185.8,485.1,181.4,490.6,177.4z"/>
			<path class="st6" d="M439.2,169.4c0-0.3,0-0.5,0-0.8c-5.1,4.1-9.9,15.7-14.8,17.4c5.7,2,12.3,3.5,17.5,4.9
				c0.8,0.2,1.6,0.4,2.4,0.6L444,191C439.5,184.2,439.3,176,439.2,169.4z"/>
			<path class="st6" d="M467.6,166.6c-8.1-2.5-15.2-4.9-23-2c-0.6,1.6-1.5,15.2,1.4,21.1C451.3,178.1,459.9,170.4,467.6,166.6z"/>
			<path class="st6" d="M516.9,191.8c-1.8-2-3.2-3.6-4.3-5.3c-4.6,4.1-8.1,5.9-14.4,8.4l-2.1,0.8l-1-1.9c-1.9-3.8-3.4-7.6-4.3-11.1
				c-5.2,3.9-10.4,8.3-14.6,13.4l-0.4,0.5C492.8,197.6,506.4,195.4,516.9,191.8z"/>
			<path class="st6" d="M510.9,182.1c-5.7-1.6-11.6-3.7-16.9-5.6l0.4,2.3c0.7,3.7,1.9,7.6,3.8,11.7
				C503.4,188.3,506.4,186.4,510.9,182.1z"/>
			<path class="st7" d="M551.7,88c-33.4-31.5-76.7-54.5-118.9-64.4c0,0-0.7-0.2-1.7-0.4c-13-2.9-33.6-5.3-48.4-5.8
				c11.9,1.5,23.3,3.6,34.1,6c-5.7-0.9-11.5-1.4-17.5-1.5c-29.5-0.6-54.8,14.9-79.4,29.3C400.9,41.9,451.9,62,494,96.3
				c30.8,25.1,70.6,48.9,108.7,34.8c0.1,0.1,0.1,0.1,0.2,0.1c-16.3,24.1-48,41.7-78.7,43.5c-1.6-0.2-3.3-0.5-5-0.9
				c-7.1-1.5-14.4-4.3-21.1-7.1l-11.7-4.9c-2.7-1.1-5.4-2.2-8.1-3.2l-0.2-0.1c-3.9-1.4-9-3.2-14.6-4.4c-9-1.9-16.5-1.8-23.2,0.3
				c-4.2,1.4-7.5,5.2-10.9,9.8c-2.8,4.7-6,8.5-9.4,11.5c-9.5,8.3-21.1,10.2-33.5,8.2c23.8,10.4,44.7,17.1,63.1,20.3
				c29.9,5.2,53.5,1.3,72.7-10.6c-7.2,3.4-15.7,7.1-25.6,8.6c-18.4,2.8-36.1,1-50.7-2.1c-21.3-4.6-36-12-36-12
				c6.8-1.6,12-6.5,16.3-11.8c6-7.4,10.4-15.7,15.4-17.3c10-3.2,21.5-0.5,30.9,2.7l0.1-0.1l0,0.1c1.2,0.4,2.5,0.9,3.6,1.3l0.2,0.1
				c4.5,1.7,9.3,3.7,13.8,5.6c1.6,0.7,3.2,1.4,4.8,2c0,0,0-0.1,0-0.1c0.2,0.1,0.5,0.3,0.7,0.4c9.3,3.9,18.7,7.4,28,8.5
				c36.5-2,70.1-23.9,85.4-49.6c-5.8-4.1-11.9-8.1-17.7-12C578,108.8,563.7,99.3,551.7,88z M531,107.6c-3.4-1.6-6.7-3.8-10-6.1
				c13.4,2.3,29,2.8,22.4-7.4c10.7,8.1,22.1,17.4,33.9,23.6C562.8,120.2,544.2,113.9,531,107.6z"/>
			<path class="st8" d="M455.8,111.9c1.6,11.5,3.9,21.3,19.7,19C468.7,126.3,463.5,115.8,455.8,111.9z"/>
			<path class="st7" d="M498.6,128.9c-2.1-15.5-14-30.5-32.7-38.3c9.9,6.7,25.7,22.3,26.6,35.5c-3.1,1.9-8.7,3-10.7,3.6
				C487.4,131.4,494.1,130.4,498.6,128.9z"/>
			<path class="st7" d="M309.9,83.3c-25.1,8.4-38.4,41.7-38.4,41.7s15.4-25.8,49-34.1C308.1,98,300.4,108,300.4,108
				c8.5-7.2,34.5-13.9,34.5-13.9c-7.8,5-8.6,7.2-8.6,7.2s16.3-10.4,46.9-9.8C364.4,84.9,343.6,72.1,309.9,83.3z"/>
			<path class="st7" d="M424.4,109.8c-1,2.7-12.4,33.7-18.1,46.1c7.3-8.4,22.2-46.5,23.4-49.4C427.9,107.6,426.2,108.7,424.4,109.8z
				"/>
			<path class="st7" d="M392.2,167l29.2-69.5c-3.3,1.6-6.6,3.1-9.8,4.6C409.1,111.5,398.9,150.1,392.2,167z"/>
			<path class="st7" d="M369.9,186.8l40.8-99.1c-4.7,2.1-9.2,4-13.6,5.8C393.5,108,379.4,162.8,369.9,186.8z"/>
			<path class="st7" d="M261.2,111.1c0,0,11.3-29.2,43.4-40.9c0,0,0,0,0,0s0,0,0.1,0c8.7-3.2,19-5.1,31-4.8c3.2,0,6.3,0.2,9.4,0.7
				c0.1,0,0.2,0,0.3,0c-6.1-1.6-12.3-3.4-18.8-3.6C294.6,61.4,267.8,83.8,261.2,111.1z"/>
			<path d="M223.4,121.5c-0.1,0-0.1,0.1-0.2,0.1c-0.1,0.4-0.2,0.6-0.2,0.6C223.2,122,223.3,121.7,223.4,121.5z"/>
			<path class="st7" d="M236.9,83.7c-6.9,14.7-12.6,34-13.7,37.8c0.1-0.2,7.6-21.9,29.4-46.3c15-18.2,30-29,45-36.8
				c13.3-7.8,28.7-14.8,46.6-20.2c-30.6,4.7-47.8,14-47.8,14l8.5-9l-23,9.4c1.5-0.7,6.1-3.1,14.6-10.3
				c-60.8,24.9-80.7-9.8-81.3-20.2c0.1-0.7,0.2-1.5,0.3-2.2c0,0-0.6,1.1-1.4,3c-3.6,8.2-5.4,16.1-5.6,23.4
				C207.4,43.2,212.2,65.2,236.9,83.7z"/>
			<path d="M223.2,121.6C223.2,121.6,223.2,121.6,223.2,121.6C223.2,121.5,223.2,121.6,223.2,121.6L223.2,121.6z"/>
		</g>
		<g>
			<path class="st6" d="M0,209.5l6.6-18.8h33.3v-11.4H16.6c-7.8,0-13.3-5.6-13.3-13.3v-19.7c0-7.8,5.6-13.3,13.3-13.3h47.3
				l-6.6,18.8H26.3v11.4h23.2c7.8,0,13.3,5.6,13.3,13.3v19.7c0,7.8-5.6,13.3-13.3,13.3H0z"/>
			<path class="st6" d="M72.1,132.9h23v29h20.1v-29h23v76.6h-23v-28.9H95.1v28.9h-23V132.9z"/>
			<path class="st6" d="M164,132.9h38.7l20.8,76.6h-44.6v-16.6h15l-8.8-37.9h-4.4L167,209.5h-24L164,132.9z"/>
			<path class="st6" d="M293.3,166.4c0,6.5-4.7,11.2-11.2,11.2h-1l16.8,31.9h-23.6l-20.5-41.4h16.4v-16.4h-18.9v57.8h-23v-76.6h51.5
				c7.8,0,13.3,5.6,13.3,13.3V166.4z"/>
			<path class="st6" d="M325.9,209.5h-23v-76.6h23v29h9.1l9.8-29h26.3l-12,29c-2,4.6-4.5,6.9-8,8c3.5,0.8,6.2,2.5,8.1,7l13.2,32.6
				h-27.1l-10.5-28.8h-8.9V209.5z"/>
			<path class="st6" d="M18.9,311.2c-8.7,0-15-6.3-15-15v-56.2c0-8.7,6.3-15,15-15h55.7l-7.4,21.2H29.7V290h21.4v-13.3H38.6l5.9-17
				h28.7v51.5H18.9z"/>
			<path class="st6" d="M101.8,224.9h43.6l23.4,86.3h-50.3v-18.7h16.9l-9.9-42.6h-4.9l-15.4,61.4h-27L101.8,224.9z"/>
			<path class="st6" d="M292.2,311.2h-25.9v-65.1h-20.1v65.1h-25.9v-65.1h-20.1v65.1h-25.9v-86.3h102.8c8.7,0,15,6.3,15,15V311.2z"
				/>
			<path class="st6" d="M302.6,224.9h25.9v86.3h-25.9V224.9z"/>
			<path class="st6" d="M414,311.2h-25.9v-65.1h-22.7v65.1h-25.9v-86.3H399c8.7,0,15,6.3,15,15V311.2z"/>
			<path class="st6" d="M438.9,311.2c-8.7,0-15-6.3-15-15v-56.2c0-8.7,6.3-15,15-15h55.7l-7.4,21.2h-37.5V290h21.4v-13.3h-12.6
				l5.9-17h28.7v51.5H438.9z"/>
		</g>
		<g>
			<path class="st7" d="M22.3,361.1v-15.4l-5.1,10h-3.5l-5.1-10v15.4H3.5v-26.5h5.1l6.9,14.3l6.9-14.3h5.1v26.5H22.3z"/>
			<path class="st7" d="M50.4,361.1l-1.6-4.7h-9.4l-1.6,4.7h-5.4l9.6-26.5h4.1l9.7,26.5H50.4z M44.3,342.5l-3.3,9.6h6.6L44.3,342.5z
				"/>
			<path class="st7" d="M74.1,361.1l-5.1-9.2l-5.1,9.2H58l8.2-13.6l-7.7-12.9h5.9l4.6,8.5l4.6-8.5h5.8l-7.7,12.9l8.2,13.6H74.1z"/>
			<path class="st7" d="M85.1,361.1v-26.5h5.2v26.5H85.1z"/>
			<path class="st7" d="M117,361.1v-15.4l-5.1,10h-3.5l-5.1-10v15.4h-5.2v-26.5h5.1l6.9,14.3l6.9-14.3h5.1v26.5H117z"/>
			<path class="st7" d="M130.1,361.1v-26.5h5.2v26.5H130.1z"/>
			<path class="st7" d="M141.6,361.1V357l11.3-17.7h-10.8v-4.6H159v4.1l-11.3,17.8H159v4.6H141.6z"/>
			<path class="st7" d="M165.4,361.1v-26.5h17.4v4.6h-12.3v6.2H181v4.6h-10.4v6.4h12.3v4.6H165.4z"/>
			<path class="st7" d="M210.2,350.3v10.8H205v-10.8l-8-15.6h5.6l4.9,10.7l4.9-10.7h5.6L210.2,350.3z"/>
			<path class="st7" d="M238.7,358.5c-1.9,1.9-4.1,2.9-7.1,2.9c-3,0-5.3-1-7.2-2.9c-2.7-2.7-2.6-6-2.6-10.6c0-4.6-0.1-7.9,2.6-10.6
				c1.9-1.9,4.2-2.9,7.2-2.9c3,0,5.3,1,7.1,2.9c2.7,2.7,2.6,6,2.6,10.6C241.4,352.5,241.4,355.8,238.7,358.5z M234.9,340.5
				c-0.7-0.9-1.9-1.4-3.3-1.4s-2.6,0.6-3.3,1.4c-1,1.1-1.3,2.3-1.3,7.4c0,5.1,0.3,6.3,1.3,7.4c0.7,0.9,1.9,1.4,3.3,1.4
				s2.6-0.6,3.3-1.4c1-1.1,1.3-2.3,1.3-7.4C236.2,342.8,235.9,341.6,234.9,340.5z"/>
			<path class="st7" d="M257.8,361.4c-5.4,0-9.7-3.7-9.7-9.3v-17.4h5.2v17.2c0,3,1.8,4.9,4.6,4.9c2.8,0,4.6-1.8,4.6-4.9v-17.2h5.1
				v17.4C267.5,357.7,263.2,361.4,257.8,361.4z"/>
			<path class="st7" d="M289.1,361.1l-5.2-10.6h-3.7v10.6H275v-26.5h10.4c5.4,0,8.6,3.7,8.6,8.1c0,3.7-2.3,6-4.8,6.9l5.9,11.4H289.1
				z M285.1,339.3h-4.9v7h4.9c2.3,0,3.8-1.4,3.8-3.5C288.8,340.7,287.3,339.3,285.1,339.3z"/>
			<path class="st7" d="M321.8,351.2h-5.1v10h-5.2v-26.5h10.3c5.5,0,8.7,3.8,8.7,8.2C330.5,347.4,327.2,351.2,321.8,351.2z
				 M321.5,339.3h-4.8v7.2h4.8c2.3,0,3.8-1.4,3.8-3.6C325.4,340.8,323.9,339.3,321.5,339.3z"/>
			<path class="st7" d="M352.7,358.5c-1.9,1.9-4.1,2.9-7.1,2.9s-5.3-1-7.2-2.9c-2.7-2.7-2.6-6-2.6-10.6c0-4.6-0.1-7.9,2.6-10.6
				c1.9-1.9,4.2-2.9,7.2-2.9s5.3,1,7.1,2.9c2.7,2.7,2.6,6,2.6,10.6C355.3,352.5,355.3,355.8,352.7,358.5z M348.8,340.5
				c-0.7-0.9-1.9-1.4-3.3-1.4s-2.6,0.6-3.3,1.4c-1,1.1-1.3,2.3-1.3,7.4c0,5.1,0.3,6.3,1.3,7.4c0.7,0.9,1.9,1.4,3.3,1.4
				s2.6-0.6,3.3-1.4c1-1.1,1.3-2.3,1.3-7.4C350.1,342.8,349.8,341.6,348.8,340.5z"/>
			<path class="st7" d="M371.7,339.3v21.8h-5.2v-21.8h-6.9v-4.6h19v4.6H371.7z"/>
			<path class="st7" d="M384.6,361.1v-26.5h17.4v4.6h-12.3v6.2h10.4v4.6h-10.4v6.4h12.3v4.6H384.6z"/>
			<path class="st7" d="M424.5,361.1l-10.5-16.2v16.2h-5.2v-26.5h4.6l10.5,16.2v-16.2h5.2v26.5H424.5z"/>
			<path class="st7" d="M447.2,339.3v21.8H442v-21.8h-6.9v-4.6h19v4.6H447.2z"/>
			<path class="st7" d="M460.1,361.1v-26.5h5.2v26.5H460.1z"/>
			<path class="st7" d="M488.3,361.1l-1.6-4.7h-9.4l-1.6,4.7h-5.4l9.6-26.5h4.1l9.7,26.5H488.3z M482.1,342.5l-3.3,9.6h6.6
				L482.1,342.5z"/>
			<path class="st7" d="M498.7,361.1v-26.5h5.2v21.8h12v4.6H498.7z"/>
		</g>
	</g>
</g>
<g id="Layer_2_copy" class="st0">
	<text transform="matrix(1 0 0 1 -194.2315 94.547)" class="st9 st4 st5">POWERED BY</text>
</g>
</svg>
